Coordinates
version=1
nRows=9
nColumns=63
inDegrees=yes

Units are S.I. units (second, meters, Newtons, ...)
If the header above contains a line with 'inDegrees', this indicates whether rotational values are in degrees (yes) or radians (no).

endheader
time	pelvis_tilt	pelvis_list	pelvis_rotation	pelvis_tx	pelvis_ty	pelvis_tz	hip_flexion_r	hip_adduction_r	hip_rotation_r	knee_angle_r	knee_angle_r_beta	ankle_angle_r	subtalar_angle_r	mtp_angle_r	hip_flexion_l	hip_adduction_l	hip_rotation_l	knee_angle_l	knee_angle_l_beta	ankle_angle_l	subtalar_angle_l	mtp_angle_l	L5_S1_Flex_Ext	L5_S1_Lat_Bending	L5_S1_axial_rotation	L4_L5_Flex_Ext	L4_L5_Lat_Bending	L4_L5_axial_rotation	L3_L4_Flex_Ext	L3_L4_Lat_Bending	L3_L4_axial_rotation	L2_L3_Flex_Ext	L2_L3_Lat_Bending	L2_L3_axial_rotation	L1_L2_Flex_Ext	L1_L2_Lat_Bending	L1_L2_axial_rotation	L1_T12_Flex_Ext	L1_T12_Lat_Bending	L1_T12_axial_rotation	Abs_r3	Abs_r2	Abs_r1	Abs_t1	Abs_t2	neck_flexion	neck_bending	neck_rotation	arm_flex_r	arm_add_r	arm_rot_r	elbow_flex_r	pro_sup_r	wrist_flex_r	wrist_dev_r	arm_flex_l	arm_add_l	arm_rot_l	elbow_flex_l	pro_sup_l	wrist_flex_l	wrist_dev_l
      6.05084746	      0.88073632	    -22.07973020	     98.54315655	      0.21779204	      0.34314754	      0.62271159	      7.81921935	     -0.67283861	     -7.27205441	      6.01271336	      0.10494165	     14.16951076	      2.75299221	      0.00000000	      6.11950995	      2.68501391	    -14.46012837	      1.23480584	      0.02155143	     21.17736183	      3.20141718	      0.00000000	      0.19250895	     -0.72350228	      1.67911212	      0.35750838	     -0.96225803	      1.78405663	      0.31627296	     -1.75912344	      1.78405663	      0.22001848	     -1.75912344	      1.46922311	      0.17876382	     -1.47536584	      1.36427860	      0.10999962	     -1.12070503	      1.25933409	      1.37507221	     -8.18440246	      9.33871790	      0.00000000	      0.00000000	     27.77031011	     -3.80216469	      5.41184829	     -3.24325939	    -14.76093544	     13.83867600	    121.43866509	     58.19988394	      4.48111530	     21.88777897	     13.39220646	    -20.76710557	     41.27353320	    112.53839722	     79.51217753	    -21.61882574	      5.71679614
      6.06779661	      0.91558519	    -22.06960718	     98.63442787	      0.21813561	      0.34302508	      0.62138554	      7.58946924	     -0.64240530	     -7.22846327	      6.01184325	      0.10492646	     14.03345092	      2.91366811	      0.00000000	      6.05615914	      2.62203235	    -14.58244903	      1.31360376	      0.02292671	     21.07323386	      3.17962609	      0.00000000	      0.19111180	     -0.72385049	      1.67038209	      0.35491373	     -0.96272115	      1.77478097	      0.31397758	     -1.75997007	      1.77478097	      0.21842168	     -1.75997007	      1.46158433	      0.17746642	     -1.47607591	      1.35718545	      0.10920129	     -1.12124440	      1.25278657	      1.36509251	     -8.18834146	      9.29016408	      0.00000000	      0.00000000	     27.87398130	     -3.74701991	      5.30283748	     -3.73342795	    -14.80155704	     13.93331624	    121.68687302	     58.10811824	      4.55131155	     21.86739176	     13.08212713	    -20.68044561	     41.49449151	    112.77047812	     79.49431851	    -21.52965558	      5.68719055
      6.08474576	      1.15503471	    -22.18822506	     98.81050291	      0.21782593	      0.34290202	      0.61990638	      7.41392251	     -0.58159457	     -9.54674206	      5.84032971	      0.10193298	     14.04598937	      6.24351420	      0.00000000	      6.16650142	      2.38153037	    -15.64021399	      1.47264456	      0.02570250	     21.35382970	      4.74547922	      0.00000000	      0.20965644	     -0.70507859	      1.77461806	      0.38935298	     -0.93775452	      1.88553168	      0.34444457	     -1.71432808	      1.88553168	      0.23961635	     -1.71432808	      1.55279080	      0.19468697	     -1.43779626	      1.44187717	      0.11979769	     -1.09216674	      1.33096354	      1.49755500	     -7.97599002	      9.86989324	      0.00000000	      0.00000000	     27.98068030	     -4.95834460	      2.75046226	     -4.96501284	    -14.73243272	     13.20093173	    122.41635838	     57.01873305	      3.97862973	     21.87361417	     13.23826342	    -20.30809198	     41.87959023	    112.51880690	     78.77173591	    -19.04560653	      5.07680462
      6.10169492	      1.22789878	    -22.19876170	     98.84985126	      0.21762296	      0.34326147	      0.61846137	      7.29836983	     -0.55661262	     -9.72033270	      5.97628801	      0.10430590	     13.60337914	      6.30164943	      0.00000000	      6.16107695	      2.29099362	    -15.70368582	      1.62635599	      0.02838527	     21.31777056	      4.80107143	      0.00000000	      0.20260865	     -0.68159230	      1.77549589	      0.37626452	     -0.90651776	      1.88646438	      0.33286574	     -1.65722352	      1.88646438	      0.23156142	     -1.65722352	      1.55355890	      0.18814239	     -1.38990302	      1.44259041	      0.11577058	     -1.05578647	      1.33162191	      1.44721329	     -7.71030840	      9.87477547	      0.00000000	      0.00000000	     28.08880408	     -5.07256484	      2.55993688	     -5.41924492	    -14.75297920	     13.24992476	    122.76867694	     56.94324121	      3.96457486	     21.82558192	     13.17314750	    -20.54672820	     42.07427416	    112.99882454	     78.84168669	    -18.89572356	      4.96709070
      6.11864407	      1.86319994	    -22.47765901	     99.71829501	      0.21612462	      0.34340409	      0.61772961	      7.46511877	     -0.14165071	    -11.35329031	      5.94361077	      0.10373558	     12.89254246	      6.95900135	      0.00000000	      6.85499920	      1.69805357	    -15.89154663	      2.32324001	      0.04054819	     21.90998630	      6.06560976	      0.00000000	      0.25271884	     -0.60466425	      1.86030624	      0.46932416	     -0.80420345	      1.97657538	      0.41519178	     -1.47018066	      1.97657538	      0.28883236	     -1.47018066	      1.62776796	      0.23467471	     -1.23303134	      1.51149882	      0.14440355	     -0.93662492	      1.39522968	      1.80514540	     -6.84008293	     10.34646522	      0.00000000	      0.00000000	     28.16428698	     -7.46277064	     -0.39768817	     -6.90867616	    -14.87926651	     12.28072351	    123.84376316	     55.88525016	      2.49527578	     21.93542244	     14.04341750	    -20.43040204	     43.38199415	    112.69331067	     79.81533217	    -17.64343607	      4.40094081
      6.13559322	      1.89566418	    -22.43095677	     99.64738028	      0.21596420	      0.34421017	      0.61678399	      7.46258143	     -0.25665880	    -13.61723433	      6.28631521	      0.10971690	     12.69700880	      9.43601750	      0.00000000	      6.95659783	      1.49493049	    -18.63876631	      2.77165969	      0.04837459	     22.51399269	      9.90011374	      0.00000000	      0.24992452	     -0.58301497	      1.99264027	      0.46413483	     -0.77540991	      2.11718029	      0.41060100	     -1.41754259	      2.11718029	      0.28563874	     -1.41754259	      1.74356024	      0.23207991	     -1.18888412	      1.61902022	      0.14280687	     -0.90309018	      1.49448021	      1.78518588	     -6.59518190	     11.08246742	      0.00000000	      0.00000000	     28.22613002	     -9.24786676	     -2.88613915	     -7.65943906	    -14.67480562	     11.72554018	    124.39829450	     54.58683593	      1.26672268	     22.63034081	     14.45053658	    -20.61299300	     43.67587199	    112.60142675	     81.43868878	    -15.98102247	      3.81000181
      6.15254237	      1.90106462	    -22.34962881	     99.64581401	      0.21583128	      0.34505633	      0.61585623	      7.43016168	     -0.26786184	    -14.09244376	      6.55103272	      0.11433709	     12.21582703	      9.05768475	      0.00000000	      7.02937813	      1.37736600	    -18.58744717	      3.15333519	      0.05503608	     22.55066956	     10.02134116	      0.00000000	      0.26664787	     -0.55438956	      2.03104696	      0.49519175	     -0.73733812	      2.15798739	      0.43807578	     -1.34794278	      2.15798739	      0.30475185	     -1.34794278	      1.77716609	      0.24760921	     -1.13051119	      1.65022565	      0.15236259	     -0.85874943	      1.52328522	      1.90463905	     -6.27136560	     11.29607388	      0.00000000	      0.00000000	     28.27992755	     -9.51713485	     -3.20120744	     -7.87505788	    -14.36577121	     11.49810675	    124.31743965	     54.37298930	      1.00273527	     22.69998335	     14.36271048	    -20.89114257	     43.54031324	    112.80894303	     81.74436326	    -15.98573641	      3.64869605
      6.16949153	      2.21912331	    -22.38194832	    100.50566424	      0.21431652	      0.34562642	      0.61616936	      7.59419354	     -0.08052918	    -14.29212321	      6.84291143	      0.11943133	     11.87757403	      7.41864884	      0.00000000	      7.74668380	      0.97592350	    -18.52898463	      4.32182876	      0.07543014	     23.04621024	     10.74171768	      0.00000000	      0.31281713	     -0.49729885	      2.02372742	      0.58093269	     -0.66140746	      2.15021038	      0.51392726	     -1.20913241	      2.15021038	      0.35751870	     -1.20913241	      1.77076149	      0.29048199	     -1.01409181	      1.64427853	      0.17874371	     -0.77031591	      1.51779556	      2.23442147	     -5.62554400	     11.25536478	      0.00000000	      0.00000000	     28.29625767	    -11.28774860	     -5.59966796	     -8.27442437	    -14.24906719	     10.79433382	    124.62388309	     52.48732459	     -0.76157094	     23.54814013	     14.70121960	    -20.52891690	     43.54870478	    112.15948397	     85.01989753	    -16.13466912	      2.49132218
      6.18644068	      2.27872939	    -22.30876413	    100.57450613	      0.21384428	      0.34633344	      0.61632497	      7.73627404	     -0.06956545	    -14.40591718	      7.25468748	      0.12661818	     11.68046631	      6.64121459	      0.00000000	      8.18850965	      0.74238846	    -18.64745892	      5.34013691	      0.09320297	     23.15871960	     10.58460991	      0.00000000	      0.34733434	     -0.45312890	      2.03247273	      0.64503461	     -0.60266144	      2.15950228	      0.57063559	     -1.10173762	      2.15950228	      0.39696842	     -1.10173762	      1.77841364	      0.32253467	     -0.92402046	      1.65138410	      0.19846684	     -0.70189667	      1.52435455	      2.48097447	     -5.12588478	     11.30400360	      0.00000000	      0.00000000	     28.31298322	    -11.25178226	     -6.09005497	     -7.99726396	    -14.16205141	     10.77720588	    124.17536033	     52.38792148	     -0.98597243	     23.47336033	     14.64737036	    -20.49914793	     42.99224782	    111.90232433	     85.72022511	    -16.47788757	      2.19542193
